# xmcd
#
# Track frame offsets:
#	150
#	13518
#	28615
#	44361
#	58184
#	77542
#	91354
#	110925
#	147696
#	161553
#	174124
#
# Disc length: 2560 seconds
# Revision: 0
# Processed by: cddbd v1.5.2PL0 Copyright (c) Steve Scherf et al.
# Submitted via: dBpowerAMP V12.0
#
DISCID=8e09fe0b
DTITLE=Joni Harms - From Oregon To Ireland
DYEAR=2014
DGENRE=Country
TTITLE0=Here Comes The Country
TTITLE1=Louisiana Hot Sauce
TTITLE2=West Texas Waltz
TTITLE3=Joseph Built The Cradle
TTITLE4=Catalog Dreams
TTITLE5=Weakness For Cowboy's
TTITLE6=Cowboy Up
TTITLE7=Love Won't Get Nowhere If We Don't Start Somewhere
TTITLE8=From Oregon To Ireland
TTITLE9=I Want To Sing For You
TTITLE10=Let's Put The Western Back In The Country
EXTD=
EXTT0=
EXTT1=
EXTT2=
EXTT3=
EXTT4=
EXTT5=
EXTT6=
EXTT7=
EXTT8=
EXTT9=
EXTT10=
PLAYORDER=
